<svg xmlns="http://www.w3.org/2000/svg" width="1280" height="380" viewBox="0 0 1280 380"><defs><linearGradient id="bg" x1="0" y1="0" x2="1" y2="1"><stop offset="0" stop-color="#090e2b"/><stop offset="1" stop-color="#241c78"/></linearGradient>
<linearGradient id="ac" x1="0" y1="0" x2="1" y2="0"><stop offset="0" stop-color="#46cdfb"/><stop offset="1" stop-color="#9a90ff"/></linearGradient></defs><g transform="translate(30 40)"><rect width="380" height="300" rx="30" fill="url(#bg)"/><circle cx="190" cy="92" r="46" fill="#9a90ff" fill-opacity=".22"/><g fill="none" stroke="#fff" stroke-width="2.2" stroke-linecap="round" stroke-linejoin="round" transform="translate(190 92) scale(1.9) translate(-12 -12)"><path d="M12 3v12M7 11l5 5 5-5M4 20h16"/></g>
<text x="190" y="190" text-anchor="middle" font-family="-apple-system,BlinkMacSystemFont,'Segoe UI',Helvetica,Arial,sans-serif" font-size="30" font-weight="800" fill="#fff">1. Télécharge</text>
<text x="190" y="228" text-anchor="middle" font-family="-apple-system,BlinkMacSystemFont,'Segoe UI',Helvetica,Arial,sans-serif" font-size="21" fill="#c9d1f5">Le fichier .dmg dans</text><text x="190" y="256" text-anchor="middle" font-family="-apple-system,BlinkMacSystemFont,'Segoe UI',Helvetica,Arial,sans-serif" font-size="21" fill="#c9d1f5">la page Releases.</text></g><g transform="translate(450 40)"><rect width="380" height="300" rx="30" fill="url(#bg)"/><circle cx="190" cy="92" r="46" fill="#9a90ff" fill-opacity=".22"/><g fill="none" stroke="#fff" stroke-width="2.2" stroke-linecap="round" stroke-linejoin="round" transform="translate(190 92) scale(1.9) translate(-12 -12)"><rect x="3" y="5" width="12" height="14" rx="3"/><path d="M15 12h6M18 9l3 3-3 3"/></g>
<text x="190" y="190" text-anchor="middle" font-family="-apple-system,BlinkMacSystemFont,'Segoe UI',Helvetica,Arial,sans-serif" font-size="30" font-weight="800" fill="#fff">2. Glisse</text>
<text x="190" y="228" text-anchor="middle" font-family="-apple-system,BlinkMacSystemFont,'Segoe UI',Helvetica,Arial,sans-serif" font-size="21" fill="#c9d1f5">Bullo dans le dossier</text><text x="190" y="256" text-anchor="middle" font-family="-apple-system,BlinkMacSystemFont,'Segoe UI',Helvetica,Arial,sans-serif" font-size="21" fill="#c9d1f5">Applications.</text></g><g transform="translate(870 40)"><rect width="380" height="300" rx="30" fill="url(#bg)"/><circle cx="190" cy="92" r="46" fill="#9a90ff" fill-opacity=".22"/><g fill="none" stroke="#fff" stroke-width="2.2" stroke-linecap="round" stroke-linejoin="round" transform="translate(190 92) scale(1.9) translate(-12 -12)"><circle cx="12" cy="12" r="9"/><path d="M8 12.5l3 3 5-6"/></g>
<text x="190" y="190" text-anchor="middle" font-family="-apple-system,BlinkMacSystemFont,'Segoe UI',Helvetica,Arial,sans-serif" font-size="30" font-weight="800" fill="#fff">3. Ouvre</text>
<text x="190" y="228" text-anchor="middle" font-family="-apple-system,BlinkMacSystemFont,'Segoe UI',Helvetica,Arial,sans-serif" font-size="21" fill="#c9d1f5">Clic droit sur Bullo,</text><text x="190" y="256" text-anchor="middle" font-family="-apple-system,BlinkMacSystemFont,'Segoe UI',Helvetica,Arial,sans-serif" font-size="21" fill="#c9d1f5">puis Ouvrir.</text></g><g transform="translate(412 170)" fill="none" stroke="#9a90ff" stroke-width="6" stroke-linecap="round" stroke-linejoin="round"><path d="M0 0h30M20 -12l12 12-12 12"/></g><g transform="translate(832 170)" fill="none" stroke="#9a90ff" stroke-width="6" stroke-linecap="round" stroke-linejoin="round"><path d="M0 0h30M20 -12l12 12-12 12"/></g></svg>